# xmcd
#
# Track frame offsets:
#	150
#	18523
#	29253
#	41496
#	53061
#	68253
#	79885
#	99163
#	116684
#	138843
#
# Disc length: 2066 seconds
#
# Revision: 1
# Processed by: cddbd v1.5.2PL0 Copyright (c) Steve Scherf et al.
# Submitted via: audiograbber 1.83.01
#
DISCID=7208100a
DTITLE=Various Artist - Texas Loves It's Legends
DYEAR=2006
DGENRE=Country
TTITLE0=Willie Nelson - Whiskey River
TTITLE1=Buddy Holly and The Crickets - Not Fade Away
TTITLE2=Delbert McClinton - Livin' It Down
TTITLE3=Waylong Jennings  Willie Nelson - Mamas, Don't Let Your Babies Grow Up 
TTITLE3=To Be Cowboys
TTITLE4=The Fabulous Thunderbirds - Tuff Enuff
TTITLE5=Roy Orbison - Dream Baby
TTITLE6=Kris Kristofferson - Me and Bobby McGee
TTITLE7=Jerry Jeff Walker - Mr. Bojangles
TTITLE8=The Vaughan Brothers - Tick Tock
TTITLE9=Kenny Rogers - Lucille
EXTD=
EXTT0=
EXTT1=
EXTT2=
EXTT3=
EXTT4=
EXTT5=
EXTT6=
EXTT7=
EXTT8=
EXTT9=
PLAYORDER=
